<svg width="24" height="24" viewBox="0 0 24 24" fill="none" xmlns="http://www.w3.org/2000/svg">
<path d="M8.65817 4.00508C8.7219 4.00479 8.7219 4.00479 8.78692 4.0045C8.90392 4.00408 9.0209 4.00414 9.13789 4.0044C9.26444 4.00457 9.39098 4.00412 9.51752 4.00376C9.76506 4.00315 10.0126 4.00311 10.2602 4.0033C10.4615 4.00345 10.6628 4.00339 10.8641 4.0032C10.9071 4.00316 10.9071 4.00316 10.951 4.00312C11.0094 4.00307 11.0677 4.00301 11.126 4.00296C11.6723 4.00247 12.2187 4.00266 12.765 4.00307C13.2642 4.00343 13.7634 4.00297 14.2626 4.00211C14.7759 4.00124 15.2891 4.0009 15.8024 4.00114C16.0903 4.00126 16.3782 4.00118 16.6661 4.00056C16.9112 4.00003 17.1562 4.00001 17.4013 4.00063C17.5262 4.00094 17.6511 4.00101 17.776 4.00047C17.9117 4 18.0474 4.00041 18.1832 4.00104C18.2222 4.00069 18.2612 4.00035 18.3013 4C18.8004 4.00473 19.1828 4.19317 19.5446 4.52885C19.9004 4.90477 19.9975 5.32564 19.9949 5.82942C19.9952 5.89664 19.9952 5.89664 19.9955 5.96522C19.996 6.08872 19.9959 6.2122 19.9956 6.3357C19.9954 6.46923 19.9959 6.60277 19.9962 6.7363C19.9969 6.99757 19.9969 7.25883 19.9967 7.52009C19.9966 7.73254 19.9966 7.94499 19.9968 8.15744C19.9968 8.18772 19.9969 8.21801 19.9969 8.24921C19.9969 8.31074 19.997 8.37228 19.997 8.43381C19.9975 9.01032 19.9973 9.58682 19.9969 10.1633C19.9966 10.6902 19.997 11.217 19.9979 11.7439C19.9988 12.2855 19.9991 12.8271 19.9989 13.3687C19.9987 13.6726 19.9988 13.9764 19.9994 14.2802C20 14.5388 20 14.7975 19.9994 15.0561C19.9991 15.1879 19.999 15.3197 19.9995 15.4516C20.0001 15.5948 19.9996 15.738 19.999 15.8812C19.9993 15.9224 19.9996 15.9636 20 16.0061C19.9954 16.5126 19.8125 16.8964 19.4712 17.2643C19.0843 17.6304 18.6576 17.7178 18.1403 17.7112C18.0723 17.711 18.0723 17.711 18.0028 17.7108C17.8835 17.7103 17.7641 17.7093 17.6447 17.7081C17.5224 17.707 17.4001 17.7065 17.2778 17.706C17.0388 17.7048 16.7997 17.703 16.5606 17.7008C16.5614 17.7266 16.5621 17.7524 16.5629 17.779C16.5659 17.8984 16.5677 18.0178 16.5695 18.1373C16.5707 18.1779 16.5719 18.2185 16.5732 18.2603C16.5791 18.7808 16.4016 19.1664 16.0507 19.5446C15.6902 19.8858 15.2786 19.9977 14.7934 19.9949C14.7532 19.9951 14.7131 19.9953 14.6717 19.9955C14.5379 19.996 14.4041 19.9958 14.2703 19.9955C14.1741 19.9957 14.0778 19.9959 13.9816 19.9962C13.7478 19.9969 13.5139 19.9969 13.2801 19.9967C13.0899 19.9966 12.8998 19.9966 12.7096 19.9968C12.6825 19.9968 12.6554 19.9968 12.6274 19.9969C12.5723 19.9969 12.5172 19.997 12.4621 19.997C11.946 19.9975 11.4298 19.9973 10.9137 19.9969C10.4421 19.9966 9.97055 19.997 9.499 19.9979C9.01407 19.9988 8.52914 19.9991 8.0442 19.9989C7.77225 19.9987 7.50029 19.9988 7.22834 19.9994C6.99682 20 6.76531 20 6.5338 19.9994C6.41583 19.9991 6.29788 19.9991 6.1799 19.9995C6.05165 20 5.92343 19.9996 5.79518 19.999C5.75841 19.9993 5.72163 19.9996 5.68374 20C5.1922 19.9951 4.81104 19.8011 4.45536 19.4712C4.11424 19.1107 4.00227 18.6991 4.00508 18.2139C4.00489 18.1737 4.0047 18.1335 4.0045 18.0922C4.00399 17.9584 4.00424 17.8246 4.0045 17.6908C4.0043 17.5945 4.00405 17.4983 4.00376 17.4021C4.00315 17.1682 4.00311 16.9344 4.0033 16.7006C4.00345 16.5104 4.00339 16.3203 4.0032 16.1301C4.00318 16.103 4.00315 16.0758 4.00312 16.0479C4.00307 15.9928 4.00301 15.9377 4.00296 15.8826C4.00247 15.3664 4.00266 14.8503 4.00307 14.3341C4.00343 13.8626 4.00296 13.391 4.00211 12.9195C4.00124 12.4345 4.0009 11.9496 4.00114 11.4647C4.00126 11.1927 4.00118 10.9208 4.00056 10.6488C4.00003 10.4173 4.00001 10.1858 4.00063 9.95427C4.00094 9.8363 4.00094 9.71835 4.00047 9.60038C4 9.47213 4.00041 9.34391 4.00104 9.21566C4.00069 9.17888 4.00035 9.14211 4 9.10422C4.00493 8.61267 4.19885 8.23152 4.52885 7.87584C4.87025 7.55272 5.27172 7.42066 5.73498 7.42893C5.76769 7.42908 5.8004 7.42923 5.8341 7.42939C5.93719 7.42998 6.04025 7.43132 6.14333 7.43269C6.2138 7.43322 6.28427 7.43371 6.35474 7.43415C6.52627 7.43532 6.69777 7.43716 6.86929 7.43937C6.86897 7.41443 6.86866 7.38949 6.86833 7.36379C6.86546 7.12693 6.8633 6.89007 6.86191 6.65319C6.86117 6.53146 6.86017 6.40973 6.85854 6.28801C6.85667 6.14755 6.856 6.00711 6.85537 5.86664C6.85464 5.82364 6.8539 5.78065 6.85314 5.73635C6.85301 5.21813 7.02947 4.83235 7.37924 4.45536C7.74749 4.10685 8.16361 4.00238 8.65817 4.00508ZM8.15419 5.36392C7.99747 5.61089 7.99959 5.84298 8.00249 6.1276C8.00259 6.16521 8.00269 6.20282 8.00279 6.24156C8.00319 6.36099 8.00409 6.48041 8.00499 6.59984C8.00535 6.6811 8.00568 6.76235 8.00597 6.84361C8.00675 7.0422 8.00794 7.24078 8.00945 7.43937C8.04615 7.43942 8.08284 7.43947 8.12066 7.43953C9.01461 7.44083 9.90856 7.44295 10.8025 7.44592C11.2348 7.44734 11.6671 7.44849 12.0994 7.44902C12.4764 7.44949 12.8533 7.45045 13.2302 7.452C13.4296 7.45281 13.6291 7.45337 13.8286 7.45333C14.0166 7.4533 14.2046 7.45395 14.3925 7.45509C14.4613 7.45539 14.5301 7.45545 14.5988 7.45525C15.1781 7.45379 15.6323 7.52816 16.0697 7.94181C16.3891 8.27969 16.536 8.65829 16.5349 9.11818C16.5351 9.15011 16.5353 9.18204 16.5355 9.21494C16.5362 9.32151 16.5363 9.42807 16.5364 9.53464C16.5367 9.6112 16.5371 9.68776 16.5374 9.76432C16.5384 9.97189 16.539 10.1795 16.5394 10.387C16.54 10.6041 16.5409 10.8211 16.5418 11.0381C16.5435 11.449 16.5448 11.8598 16.546 12.2707C16.5474 12.7385 16.5491 13.2063 16.5509 13.6741C16.5546 14.6363 16.5578 15.5984 16.5606 16.5606C16.7983 16.5634 17.036 16.5652 17.2737 16.5665C17.3545 16.567 17.4352 16.5678 17.516 16.5687C17.6325 16.57 17.7489 16.5706 17.8654 16.5711C17.9012 16.5716 17.9369 16.5722 17.9738 16.5727C18.2072 16.5728 18.4584 16.5607 18.6481 16.4083C18.867 16.1691 18.8513 15.8769 18.8502 15.5732C18.8504 15.5313 18.8505 15.4894 18.8506 15.4462C18.851 15.3304 18.8509 15.2146 18.8508 15.0988C18.8507 14.9737 18.851 14.8486 18.8513 14.7235C18.8517 14.4786 18.8518 14.2338 18.8517 13.9889C18.8517 13.7898 18.8517 13.5907 18.8519 13.3916C18.8519 13.3491 18.8519 13.3491 18.8519 13.3057C18.852 13.2481 18.852 13.1905 18.8521 13.1329C18.8525 12.5929 18.8524 12.0529 18.8522 11.5129C18.852 11.0191 18.8524 10.5254 18.8531 10.0316C18.8537 9.52437 18.854 9.01709 18.8539 8.50982C18.8538 8.22514 18.8539 7.94046 18.8544 7.65579C18.8549 7.41343 18.8549 7.17108 18.8545 6.92872C18.8543 6.80514 18.8542 6.68156 18.8546 6.55798C18.855 6.42384 18.8547 6.28972 18.8543 6.15558C18.8545 6.11676 18.8548 6.07793 18.8551 6.03793C18.8534 5.80102 18.8436 5.5447 18.6886 5.35196C18.4551 5.138 18.172 5.14868 17.8751 5.14976C17.8158 5.14956 17.8158 5.14956 17.7552 5.14935C17.6228 5.14898 17.4904 5.14913 17.358 5.14927C17.263 5.14911 17.168 5.14893 17.073 5.14871C16.8419 5.14826 16.6107 5.1482 16.3795 5.14828C16.1916 5.14834 16.0037 5.14828 15.8157 5.14813C15.7889 5.14811 15.7622 5.14809 15.7346 5.14807C15.6802 5.14802 15.6258 5.14798 15.5714 5.14794C15.0616 5.14755 14.5518 5.14763 14.0419 5.14784C13.5758 5.14803 13.1097 5.14763 12.6436 5.14695C12.1647 5.14626 11.6858 5.14596 11.2068 5.1461C10.9381 5.14617 10.6694 5.14608 10.4006 5.14557C10.1718 5.14515 9.94302 5.1451 9.71422 5.14553C9.59757 5.14574 9.48092 5.14572 9.36427 5.14535C9.23762 5.14498 9.11098 5.14527 8.98433 5.14572C8.94773 5.14546 8.91112 5.14519 8.87341 5.14492C8.6171 5.14684 8.33748 5.16356 8.15419 5.36392ZM5.3038 8.7844C5.152 9.0236 5.14869 9.24803 5.14976 9.52372C5.14963 9.56095 5.14949 9.59819 5.14935 9.63655C5.14898 9.76108 5.14912 9.8856 5.14927 10.0101C5.14911 10.0995 5.14893 10.1889 5.14871 10.2783C5.14829 10.4957 5.1482 10.7132 5.14828 10.9306C5.14834 11.1074 5.14828 11.2842 5.14813 11.461C5.14811 11.4862 5.14809 11.5114 5.14807 11.5373C5.14802 11.5885 5.14798 11.6397 5.14794 11.6909C5.14755 12.1705 5.14763 12.6502 5.14784 13.1298C5.14803 13.5683 5.14763 14.0067 5.14695 14.4452C5.14626 14.8958 5.14596 15.3463 5.1461 15.7969C5.14617 16.0497 5.14608 16.3026 5.14557 16.5554C5.1451 16.7931 5.14519 17.0309 5.14566 17.2686C5.14574 17.3558 5.14565 17.443 5.14535 17.5302C5.14498 17.6494 5.14527 17.7685 5.14572 17.8877C5.14546 17.9221 5.14519 17.9565 5.14492 17.9919C5.14673 18.2186 5.16404 18.4644 5.31137 18.6482C5.53957 18.8566 5.81302 18.8514 6.10324 18.8502C6.1591 18.8504 6.1591 18.8504 6.21607 18.8506C6.34061 18.851 6.46513 18.8509 6.58966 18.8507C6.67904 18.8509 6.76842 18.8511 6.8578 18.8513C7.07524 18.8517 7.29269 18.8518 7.51013 18.8517C7.68693 18.8517 7.86373 18.8517 8.04053 18.8519C8.07831 18.8519 8.07831 18.8519 8.11686 18.8519C8.16803 18.852 8.21921 18.852 8.27038 18.8521C8.75003 18.8525 9.22968 18.8524 9.70934 18.8522C10.1478 18.852 10.5862 18.8524 11.0247 18.8531C11.4753 18.8537 11.9259 18.854 12.3764 18.8539C12.6293 18.8538 12.8821 18.8539 13.1349 18.8544C13.3727 18.8549 13.6104 18.8548 13.8482 18.8543C13.9354 18.8543 14.0226 18.8544 14.1098 18.8546C14.2289 18.855 14.3481 18.8547 14.4672 18.8543C14.5016 18.8545 14.536 18.8548 14.5714 18.8551C14.7981 18.8533 15.0439 18.836 15.2277 18.6886C15.4361 18.4604 15.4309 18.187 15.4298 17.8968C15.4299 17.8595 15.43 17.8223 15.4302 17.7839C15.4305 17.6594 15.4304 17.5349 15.4303 17.4103C15.4304 17.321 15.4306 17.2316 15.4308 17.1422C15.4312 16.9248 15.4313 16.7073 15.4312 16.4899C15.4312 16.3131 15.4312 16.1363 15.4314 15.9595C15.4314 15.9217 15.4314 15.9217 15.4315 15.8831C15.4315 15.832 15.4315 15.7808 15.4316 15.7296C15.432 15.25 15.4319 14.7703 15.4317 14.2907C15.4315 13.8522 15.4319 13.4138 15.4326 12.9753C15.4333 12.5247 15.4336 12.0741 15.4334 11.6236C15.4334 11.3707 15.4334 11.1179 15.434 10.8651C15.4344 10.6273 15.4343 10.3896 15.4339 10.1518C15.4338 10.0646 15.4339 9.97743 15.4342 9.89023C15.4345 9.77107 15.4343 9.65193 15.4338 9.53277C15.4341 9.49838 15.4343 9.46399 15.4346 9.42857C15.4328 9.20185 15.4155 8.95607 15.2682 8.77226C15.04 8.56389 14.7665 8.56911 14.4763 8.57024C14.439 8.5701 14.4018 8.56996 14.3635 8.56982C14.2389 8.56946 14.1144 8.5696 13.9899 8.56974C13.9005 8.56958 13.8111 8.5694 13.7217 8.56919C13.5043 8.56876 13.2868 8.56867 13.0694 8.56875C12.8926 8.56882 12.7158 8.56875 12.539 8.5686C12.5138 8.56858 12.4886 8.56856 12.4627 8.56854C12.4115 8.5685 12.3603 8.56845 12.3091 8.56841C11.8295 8.56802 11.3498 8.5681 10.8702 8.56832C10.4317 8.5685 9.99329 8.5681 9.55483 8.56742C9.10425 8.56673 8.65367 8.56644 8.20308 8.56657C7.95026 8.56664 7.69745 8.56655 7.44463 8.56605C7.20687 8.56558 6.96912 8.56567 6.73135 8.56613C6.64416 8.56622 6.55696 8.56612 6.46976 8.56582C6.3506 8.56545 6.23146 8.56574 6.11229 8.56619C6.07791 8.56593 6.04352 8.56567 6.00809 8.5654C5.757 8.5674 5.48268 8.5885 5.3038 8.7844Z" fill="#616161"/>
</svg>
