<svg width="38" height="22" viewBox="0 0 38 22" fill="none" xmlns="http://www.w3.org/2000/svg">
<rect width="38" height="22" rx="4" fill="#ECFDF5"/>
<path d="M8.84 15V8H9.45L13.4 13.9V8H14.02V15H13.42L9.45 9.04V15H8.84ZM17.5555 15.11C17.1221 15.11 16.7355 15.01 16.3955 14.81C16.0621 14.6033 15.7988 14.3133 15.6055 13.94C15.4188 13.56 15.3255 13.1133 15.3255 12.6C15.3255 12.1 15.4188 11.6633 15.6055 11.29C15.7988 10.9167 16.0621 10.6267 16.3955 10.42C16.7288 10.2067 17.1088 10.1 17.5355 10.1C17.9688 10.1 18.3355 10.21 18.6355 10.43C18.9421 10.6433 19.1755 10.9233 19.3355 11.27C19.4955 11.61 19.5755 11.97 19.5755 12.35V12.55H15.9355C15.9221 13.15 16.0621 13.6367 16.3555 14.01C16.6555 14.3767 17.0588 14.56 17.5655 14.56C17.9388 14.56 18.2521 14.4667 18.5055 14.28C18.7588 14.0867 18.9655 13.8033 19.1255 13.43L19.6255 13.72C19.1988 14.6467 18.5088 15.11 17.5555 15.11ZM15.9755 12.03H18.9755C18.9421 11.77 18.8588 11.5333 18.7255 11.32C18.5988 11.1067 18.4321 10.9367 18.2255 10.81C18.0255 10.6833 17.7955 10.62 17.5355 10.62C17.1288 10.62 16.7855 10.7467 16.5055 11C16.2321 11.2467 16.0555 11.59 15.9755 12.03ZM21.6943 15L20.1943 10.21H20.7943L21.9443 14.02L23.0743 10.21H23.5643L24.6943 14.02L25.8443 10.21H26.4443L24.9443 15H24.4543L23.3243 11.18L22.1743 15H21.6943ZM27.8705 13.16L27.8105 7.97H28.4505L28.3905 13.16H27.8705ZM28.1305 15.12C27.9771 15.12 27.8438 15.0667 27.7305 14.96C27.6238 14.8533 27.5705 14.7233 27.5705 14.57C27.5705 14.4167 27.6238 14.2867 27.7305 14.18C27.8438 14.0667 27.9771 14.01 28.1305 14.01C28.2838 14.01 28.4138 14.0667 28.5205 14.18C28.6338 14.2867 28.6905 14.4167 28.6905 14.57C28.6905 14.7233 28.6338 14.8533 28.5205 14.96C28.4138 15.0667 28.2838 15.12 28.1305 15.12Z" fill="#065F46"/>
</svg>
