<svg width="24" height="23" viewBox="0 0 24 23" fill="none" xmlns="http://www.w3.org/2000/svg">
<path fill-rule="evenodd" clip-rule="evenodd" d="M12 0.00429151C12.0021 0.00421102 18.078 -0.224642 20 2.67128C22.9457 7.10981 24 14.2079 24 15.8734C23.9997 18.5408 21.2825 21.2426 16 21.2426C13.2273 21.2426 12.0143 22.8119 12 22.8305C11.9854 22.8115 10.7724 21.2426 8 21.2426C2.71745 21.2426 0.000314097 18.5408 0 15.8734C0 14.2079 1.0543 7.10981 4 2.67128C5.92065 -0.222653 11.9895 0.00389826 12 0.00429151Z" fill="#FB4E41"/>
<path fill-rule="evenodd" clip-rule="evenodd" d="M11.9996 19.3211C11.9996 19.3211 9.03171 19.4244 3.99963 17.7444C3.99963 17.7444 1.83238 16.9082 1.31239 15.363C0.693638 13.5231 1.73757 8.26908 3.99963 7.04297C3.99963 7.04297 3.67981 7.67719 5.21551 8.30121C6.70305 8.90564 10.0143 8.30121 11.9996 8.30121C13.985 8.30121 17.2962 8.90564 18.7836 8.30121C20.3195 7.67719 19.9996 7.04297 19.9996 7.04297C22.2617 8.26908 23.3056 13.5231 22.6867 15.363C22.1669 16.9082 19.9996 17.7444 19.9996 17.7444C14.9676 19.4244 11.9996 19.3211 11.9996 19.3211Z" fill="white"/>
<path fill-rule="evenodd" clip-rule="evenodd" d="M11.9552 11.8678C11.9552 11.8678 11.5188 10.9707 11.5188 10.6799C11.5188 10.1617 11.9552 10.1226 11.9552 10.1226C11.9552 10.1226 12.3914 10.1617 12.3914 10.6799C12.3914 10.9707 11.9552 11.8678 11.9552 11.8678Z" fill="#282828"/>
<path fill-rule="evenodd" clip-rule="evenodd" d="M12.7447 11.8869C12.7447 11.8869 13.1374 11.2292 13.3441 11.0614C13.7124 10.7624 13.9852 10.8798 13.9852 10.8798C13.9852 10.8798 14.2022 11.0424 13.8339 11.3414C13.6272 11.5092 12.7447 11.8869 12.7447 11.8869Z" fill="#282828"/>
<path fill-rule="evenodd" clip-rule="evenodd" d="M11.2538 11.8869C11.2538 11.8869 10.8611 11.2292 10.6544 11.0614C10.2861 10.7624 10.0134 10.8798 10.0134 10.8798C10.0134 10.8798 9.79637 11.0424 10.1646 11.3414C10.3713 11.5092 11.2538 11.8869 11.2538 11.8869Z" fill="#282828"/>
<path d="M9.71924 16.4539C9.7032 16.3898 9.67875 16.3009 9.64404 16.1931C9.57361 15.9744 9.46336 15.6774 9.3042 15.3445C8.98522 14.6773 8.47323 13.8703 7.70361 13.2546C6.43888 12.2429 4.9399 11.2031 3.42627 10.8582C3.78062 12.2392 4.38042 13.8862 5.30225 15.1218C5.56084 15.4684 5.96194 15.7289 6.4292 15.9226C6.89552 16.1159 7.42056 16.2399 7.91846 16.3191C8.71896 16.4463 9.44103 16.4557 9.71924 16.4539Z" fill="#161616" stroke="#FB4E41" stroke-width="0.2"/>
<path d="M14.2588 16.4539C14.2748 16.3898 14.2993 16.3009 14.334 16.1931C14.4044 15.9744 14.5147 15.6774 14.6738 15.3445C14.9928 14.6773 15.5048 13.8703 16.2744 13.2546C17.5391 12.2429 19.0381 11.2031 20.5518 10.8582C20.1974 12.2392 19.5976 13.8862 18.6758 15.1218C18.4172 15.4684 18.0161 15.7289 17.5488 15.9226C17.0825 16.1159 16.5575 16.2399 16.0596 16.3191C15.2591 16.4463 14.537 16.4557 14.2588 16.4539Z" fill="#161616" stroke="#FB4E41" stroke-width="0.2"/>
<path d="M20.797 10.4745C20.4267 11.3858 18.7681 13.3017 15.0958 13.6757C15.264 12.62 16.6397 10.5018 20.797 10.4745Z" fill="white"/>
<path d="M20.7969 10.4746C20.6202 11.2303 18.9473 13.3418 15.0957 13.6758" stroke="#FB4E41" stroke-width="0.2" stroke-linecap="round"/>
<path d="M3.22721 10.4745C3.59749 11.3858 5.2561 13.3017 8.92839 13.6757C8.76019 12.62 7.38449 10.5018 3.22721 10.4745Z" fill="white"/>
<path d="M3.22705 10.4744C3.40371 11.23 5.07661 13.3416 8.92822 13.6755" stroke="#FB4E41" stroke-width="0.2" stroke-linecap="round"/>
<path fill-rule="evenodd" clip-rule="evenodd" d="M20.1404 13.2675C20.1404 13.2675 21.3573 13.5899 21.6725 13.8086C22.2341 14.1983 22.0321 14.5801 22.0321 14.5801C22.0321 14.5801 21.7452 14.9029 21.1836 14.5132C20.8683 14.2945 20.1404 13.2675 20.1404 13.2675Z" fill="#41C6FB"/>
<path fill-rule="evenodd" clip-rule="evenodd" d="M3.76344 13.2675C3.76344 13.2675 2.54652 13.5899 2.23128 13.8086C1.66967 14.1983 1.8717 14.5801 1.8717 14.5801C1.8717 14.5801 2.15861 14.9029 2.72022 14.5132C3.03546 14.2945 3.76344 13.2675 3.76344 13.2675Z" fill="#41C6FB"/>
<path fill-rule="evenodd" clip-rule="evenodd" d="M20.1679 12.8088C20.1679 12.8088 21.223 12.1222 21.5967 12.035C22.2624 11.8797 22.4102 12.2856 22.4102 12.2856C22.4102 12.2856 22.4573 12.7149 21.7916 12.8702C21.4179 12.9574 20.1679 12.8088 20.1679 12.8088Z" fill="#41C6FB"/>
<path fill-rule="evenodd" clip-rule="evenodd" d="M3.73594 12.8088C3.73594 12.8088 2.68077 12.1222 2.3071 12.035C1.6414 11.8797 1.49361 12.2856 1.49361 12.2856C1.49361 12.2856 1.44653 12.7149 2.11222 12.8702C2.48589 12.9574 3.73594 12.8088 3.73594 12.8088Z" fill="#41C6FB"/>
</svg>
