<svg width="24" height="24" viewBox="0 0 24 24" fill="none" xmlns="http://www.w3.org/2000/svg">
<path fill-rule="evenodd" clip-rule="evenodd" d="M13.7236 1.81411C13.7567 1.81869 18.9673 2.54353 20.1724 5.30533C22.0247 9.55084 21.8552 15.7878 21.6037 17.2143C21.2009 19.4985 18.4665 21.402 13.9426 20.6044C11.5765 20.1872 10.301 21.3384 10.2771 21.3602C10.266 21.339 9.46313 19.8146 7.09122 19.3963C2.56709 18.5986 0.647864 15.8745 1.05064 13.5902C1.30225 12.1637 3.27697 6.2451 6.4697 2.88918C8.55329 0.699176 13.7236 1.81411 13.7236 1.81411Z" fill="#FB4E41"/>
<path fill-rule="evenodd" clip-rule="evenodd" d="M10.8063 18.3555C10.8063 18.3555 8.24901 17.9957 4.1933 15.7973C4.1933 15.7973 2.46357 14.7539 2.25158 13.3522C1.99951 11.6832 3.68684 7.34162 5.80917 6.63324C5.80917 6.63324 5.43952 7.12805 6.66043 7.89431C7.84307 8.63653 10.77 8.61894 12.4702 8.91873C14.1704 9.21853 16.9149 10.2361 18.2799 9.94313C19.6894 9.64069 19.5113 9.04929 19.5113 9.04929C21.2633 10.4408 21.364 15.0977 20.5561 16.5798C19.8777 17.8245 17.8954 18.2133 17.8954 18.2133C13.3324 18.8921 10.8063 18.3555 10.8063 18.3555Z" fill="white"/>
<path fill-rule="evenodd" clip-rule="evenodd" d="M11.9349 11.9523C11.9349 11.9523 11.7463 10.874 11.8043 10.5454C11.9075 9.96004 12.2826 9.98053 12.2826 9.98053C12.2826 9.98053 12.642 10.0895 12.5387 10.6749C12.4808 11.0035 11.9349 11.9523 11.9349 11.9523Z" fill="#161616"/>
<path fill-rule="evenodd" clip-rule="evenodd" d="M12.5732 12.0656C12.5732 12.0656 13.0391 11.3895 13.2492 11.2331C13.6236 10.9544 13.834 11.1269 13.834 11.1269C13.834 11.1269 13.9878 11.3414 13.6135 11.6201C13.4034 11.7765 12.5732 12.0656 12.5732 12.0656Z" fill="#161616"/>
<path fill-rule="evenodd" clip-rule="evenodd" d="M11.2965 11.8408C11.2965 11.8408 11.0899 11.0462 10.946 10.8273C10.6896 10.4374 10.4328 10.5275 10.4328 10.5275C10.4328 10.5275 10.2149 10.6765 10.4713 11.0664C10.6153 11.2853 11.2965 11.8408 11.2965 11.8408Z" fill="#161616"/>
<path d="M9.35825 15.4704C9.40109 15.2163 9.46954 14.7201 9.45628 14.1609C9.43753 13.371 9.25921 12.4715 8.64412 11.9452C7.63058 11.078 6.22341 10.3715 4.9871 9.86946C6.15045 10.724 7.40693 11.6429 8.15806 12.7054C8.69064 13.4589 8.98493 14.1921 9.15721 14.7379C9.24331 15.0106 9.2994 15.2368 9.33889 15.3946C9.34579 15.4222 9.35235 15.4475 9.35825 15.4704Z" fill="#161616" stroke="#FB4E41" stroke-width="0.0998557" stroke-linejoin="round"/>
<path d="M13.1447 16.0908C13.1953 15.827 13.3003 15.3638 13.4923 14.8729C13.7801 14.137 14.2553 13.3528 15.0133 13.0685C16.2592 12.6015 17.8185 12.4185 19.1498 12.369C18.5112 12.5523 17.8269 12.7416 17.1722 12.9613C16.3842 13.2258 15.6334 13.5369 15.0486 13.9424C14.2896 14.469 13.8025 15.0602 13.4938 15.5167C13.3396 15.7449 13.2295 15.9398 13.1534 16.0754C13.1504 16.0806 13.1475 16.0857 13.1447 16.0908Z" fill="#161616" stroke="#FB4E41" stroke-width="0.0998557" stroke-linejoin="round"/>
</svg>
