<svg width="24" height="23" viewBox="0 0 24 23" fill="none" xmlns="http://www.w3.org/2000/svg">
<path fill-rule="evenodd" clip-rule="evenodd" d="M12 0.00428949C12 0.00428949 18.0776 -0.225111 20 2.67128C22.9457 7.10985 24 14.2079 24 15.8734C23.9998 18.5408 21.2827 21.2426 16 21.2426C13.2109 21.2426 12 22.8314 12 22.8314C12 22.8314 10.7892 21.2426 8 21.2426C2.71739 21.2425 0.000182818 18.5408 0 15.8734C0 14.2079 1.0543 7.10986 4 2.67128C5.91674 -0.216793 11.965 0.00299092 12 0.00428949Z" fill="#FB4E41"/>
<path fill-rule="evenodd" clip-rule="evenodd" d="M12.6532 18.8479C12.6532 18.8479 9.86369 18.9477 5.13415 17.324C5.13415 17.324 3.0972 16.5158 2.60847 15.0224C2.02692 13.2441 3.00808 8.16622 5.13415 6.9812C5.13415 6.9812 4.83356 7.59417 6.27693 8.19727C7.67503 8.78145 10.7872 8.19727 12.6532 8.19727C14.5192 8.19727 17.6313 8.78145 19.0293 8.19727C20.4728 7.59417 20.1722 6.9812 20.1722 6.9812C22.2983 8.16622 23.2795 13.2441 22.6977 15.0224C22.2092 16.5158 20.1722 17.324 20.1722 17.324C15.4427 18.9477 12.6532 18.8479 12.6532 18.8479Z" fill="white"/>
<path fill-rule="evenodd" clip-rule="evenodd" d="M13.0493 11.0758C13.0493 11.0758 12.5523 9.91909 12.53 9.53603C12.4903 8.85361 12.9155 8.77707 12.9155 8.77707C12.9155 8.77707 13.3465 8.80375 13.3862 9.48618C13.4086 9.86924 13.0493 11.0758 13.0493 11.0758Z" fill="#161616"/>
<path fill-rule="evenodd" clip-rule="evenodd" d="M13.7934 11.0333C13.7934 11.0333 14.1356 10.1532 14.3292 9.92244C14.6741 9.51131 14.9553 9.64849 14.9553 9.64849C14.9553 9.64849 15.1843 9.84779 14.8394 10.2589C14.6458 10.4897 13.7934 11.0333 13.7934 11.0333Z" fill="#161616"/>
<path fill-rule="evenodd" clip-rule="evenodd" d="M12.3048 11.1197C12.3048 11.1197 11.8628 10.2853 11.6437 10.0785C11.2534 9.71022 10.99 9.87911 10.99 9.87911C10.99 9.87911 10.7857 10.1036 11.176 10.472C11.3951 10.6787 12.3048 11.1197 12.3048 11.1197Z" fill="#161616"/>
<path d="M15.5361 15.5911C15.521 15.3946 15.4803 14.7072 15.59 13.9289C15.7169 13.0293 16.041 12.0261 16.8136 11.507C18.1868 10.5847 20.0578 9.93592 21.6112 9.53142C21.3405 10.9468 20.8337 12.6669 19.9667 13.9822C19.7229 14.352 19.3303 14.6395 18.8715 14.8618C18.4131 15.0839 17.8926 15.2393 17.3982 15.3477C16.5311 15.5377 15.7495 15.5821 15.5361 15.5911Z" fill="#161616" stroke="#FB4E41" stroke-width="0.114834"/>
<path d="M11.1084 15.8491C11.1007 15.6522 11.0613 14.9647 10.862 14.2043C10.6316 13.3255 10.1932 12.3668 9.36559 11.9408C7.89467 11.1841 5.96093 10.7569 4.37116 10.5354C4.80431 11.9098 5.50723 13.5594 6.52105 14.7652C6.80612 15.1043 7.22943 15.3442 7.71099 15.5118C8.19201 15.6792 8.72708 15.7731 9.2307 15.8234C10.114 15.9115 10.8954 15.8649 11.1084 15.8491Z" fill="#161616" stroke="#FB4E41" stroke-width="0.114834"/>
</svg>
